<?xml version="1.0" encoding="utf-8"?>
<!-- Generator: Adobe Illustrator 19.1.0, SVG Export Plug-In . SVG Version: 6.00 Build 0)  -->
<svg version="1.1" id="Layer_1" xmlns="http://www.w3.org/2000/svg" xmlns:xlink="http://www.w3.org/1999/xlink" x="0px" y="0px"
	 viewBox="0 0 48.5 41.6" style="enable-background:new 0 0 48.5 41.6;" xml:space="preserve">
<style type="text/css">
	.st0{fill:#D2E6DB;}
	.st1{fill:#B6CCBF;}
	.st2{fill:#1B331B;}
	.st3{fill:#E7F4F5;}
	.st4{opacity:0.33;}
	.st5{fill:#2BA9E0;}
	.st6{opacity:0.3;}
	.st7{opacity:0.2;}
	.st8{fill:#0A2B3C;}
	.st9{opacity:5.000000e-02;}
	.st10{opacity:0.68;}
	.st11{fill:#FFFFFF;}
	.st12{fill:#C6462B;}
	.st13{fill:#F9EDA8;}
	.st14{opacity:0.25;}
	.st15{fill:#503412;}
	.st16{opacity:0.1;}
	.st17{fill:#E0D4CE;}
	.st18{fill:#E7E7E8;}
</style>
<g>
	<g>
		<path class="st0" d="M21.4,15.6c-5.5,4.8-7.5,16.2-2.8,21.8c3.6,4.4,14.8,3.1,20.3-1.8s8.7-22.9,8.7-22.9c0.3-1.6-0.8-2.9-2.5-2.8
			C45.2,10,26.9,10.8,21.4,15.6z"/>
	</g>
	<g>
		<path class="st1" d="M18.6,37.5c-4.7-5.7-2.8-17,2.8-21.8c4.1-3.6,14.9-4.9,20.4-5.4c0.8,6.4,1.5,15.3,0.1,21.4
			c-0.9,1.7-1.9,3.1-2.9,4C33.4,40.6,22.2,41.8,18.6,37.5z"/>
	</g>
	<g>
		<path class="st0" d="M26.8,15.6c5.5,4.8,7.5,16.2,2.8,21.8c-3.6,4.4-14.8,3.1-20.3-1.8S0.5,12.9,0.5,12.9C0.3,11.2,1.4,10,3,10
			C3,10,21.3,10.8,26.8,15.6z"/>
	</g>
	<g>
		<path class="st0" d="M37.4,23.2c-0.1,7.4-6.1,13.3-13.5,13.2c-7.4-0.1-13.3-6.1-13.2-13.5c0.1-7.4,11.7-21.5,11.7-21.5
			c1-1.3,2.7-1.3,3.8,0C26.2,1.5,37.5,15.9,37.4,23.2z"/>
	</g>
	<g>
		<path class="st1" d="M28.2,4.2l-4.1,2.1l-3.8-2.1C17,8.6,10.8,17.6,10.8,23c-0.1,7.4,5.8,13.4,13.2,13.5
			c7.4,0.1,13.4-5.8,13.5-13.2C37.5,17.8,31.4,8.6,28.2,4.2z"/>
	</g>
	<g>
		<path class="st2" d="M24.1,36.9c0,0-0.1,0-0.1,0c-7.6-0.1-13.8-6.3-13.7-14C10.3,15.5,21.6,1.7,22,1.1C22.7,0.4,23.4,0,24.3,0
			c0.9,0,1.7,0.4,2.3,1.2c0.5,0.6,11.4,14.6,11.4,22l0,0C37.9,30.8,31.7,36.9,24.1,36.9z M24.3,1c-0.6,0-1.1,0.3-1.5,0.8
			C22.7,1.9,11.3,15.9,11.3,23c-0.1,7.1,5.6,12.9,12.7,13c0,0,0.1,0,0.1,0c7,0,12.8-5.7,12.8-12.7c0.1-7.1-11-21.3-11.1-21.4
			C25.4,1.3,24.9,1,24.3,1C24.3,1,24.3,1,24.3,1z"/>
	</g>
	<g>
		<path class="st2" d="M26.4,40.6c-0.5,0-1,0-1.4-0.1c-2.9-0.2-5.2-1.2-6.5-2.8c-4.2-5.1-3.8-16.8,2.8-22.5
			c5.6-4.9,23.4-5.7,24.1-5.7c0.9,0,1.8,0.3,2.4,0.9c0.6,0.7,0.8,1.5,0.6,2.5c-0.1,0.7-3.3,18.2-8.9,23.1
			C36.3,38.9,31.1,40.6,26.4,40.6z M45.6,10.5c0,0-0.1,0-0.1,0c-0.2,0-18.2,0.8-23.5,5.5l0,0c-5.1,4.5-7.4,15.5-2.7,21.2
			c1.1,1.4,3.2,2.2,5.8,2.4c4.8,0.4,10.5-1.4,13.8-4.3c5.3-4.7,8.5-22.4,8.6-22.6c0.1-0.6,0-1.2-0.4-1.6
			C46.7,10.7,46.2,10.5,45.6,10.5z"/>
	</g>
	<g>
		<path class="st0" d="M13.2,19.5c-3.4,6.5-0.9,14.6,5.6,18c6.5,3.4,14.6,0.9,18-5.6c3.4-6.5-0.1-24.5-0.1-24.5
			c-0.3-1.6-1.8-2.4-3.3-1.7C33.4,5.6,16.6,13,13.2,19.5z"/>
	</g>
	<g>
		<path class="st1" d="M29.6,37.5c4.7-5.7,2.8-17-2.8-21.8c-4.1-3.6-14.9-4.9-20.4-5.4C5.7,16.6,5,25.6,6.4,31.7
			c0.9,1.7,1.9,3.1,2.9,4C14.8,40.6,26,41.8,29.6,37.5z"/>
	</g>
	<g>
		<path class="st1" d="M36.9,31.8c1.8-3.4,1.7-9.8,1.2-15.2c-2.3-2.9-6.1-5.8-10.1-8.4c-5.2,2.7-12.5,7.1-14.7,11.2
			c-3.4,6.5-0.9,14.6,5.6,18C25.4,40.9,33.4,38.4,36.9,31.8z"/>
	</g>
	<g>
		<path class="st2" d="M25,39.5c-2.2,0-4.3-0.5-6.4-1.6c-6.8-3.5-9.4-11.9-5.8-18.7l0,0c3.5-6.6,19.7-13.8,20.4-14.1
			c0.9-0.4,1.8-0.4,2.5,0c0.8,0.4,1.3,1.1,1.5,2.1c0.1,0.7,3.5,18.2,0.1,24.8C34.8,36.8,30,39.5,25,39.5z M34.5,5.9
			c-0.3,0-0.6,0.1-0.9,0.2C33.4,6.2,17,13.4,13.7,19.7l0,0c-3.3,6.3-0.8,14,5.4,17.3c6.3,3.3,14,0.8,17.3-5.4
			c3.3-6.3-0.1-24-0.2-24.1c-0.1-0.6-0.5-1.1-1-1.4C35,6,34.8,5.9,34.5,5.9z"/>
	</g>
	<g>
		<path class="st2" d="M22.1,40.6c-4.7,0-9.9-1.8-13.1-4.6c-5.6-4.9-8.8-22.4-8.9-23.1c-0.2-0.9,0.1-1.8,0.6-2.5
			c0.6-0.7,1.4-1,2.4-0.9c0.8,0,18.5,0.8,24.1,5.7l0,0c6.6,5.8,7.1,17.4,2.8,22.5c-1.3,1.6-3.6,2.5-6.5,2.8
			C23,40.6,22.5,40.6,22.1,40.6z M2.9,10.5c-0.6,0-1.1,0.2-1.5,0.6c-0.4,0.4-0.5,1-0.4,1.6c0,0.2,3.2,17.9,8.6,22.6
			c3.3,2.9,9,4.6,13.8,4.3c2.6-0.2,4.7-1.1,5.8-2.4c4.6-5.6,2.4-16.7-2.7-21.2l0,0C21.2,11.3,3.2,10.5,3,10.5
			C3,10.5,2.9,10.5,2.9,10.5z"/>
	</g>
	<g>
		<path class="st0" d="M35.2,21.6c3.4,6.5,0.9,14.6-5.6,18C23.1,43,15,40.5,11.6,34s0.1-24.5,0.1-24.5c0.3-1.6,1.8-2.4,3.3-1.7
			C15.1,7.8,31.8,15.1,35.2,21.6z"/>
	</g>
	<g>
		<path class="st2" d="M23.4,41.6c-1.4,0-2.8-0.2-4.2-0.6c-3.5-1.1-6.4-3.5-8.1-6.8c-3.5-6.6-0.1-24.1,0.1-24.8
			c0.2-0.9,0.7-1.7,1.5-2.1c0.8-0.4,1.7-0.4,2.5,0c0.7,0.3,17,7.5,20.4,14.1l0,0c1.7,3.3,2,7,0.9,10.5c-1.1,3.5-3.5,6.4-6.8,8.1
			C27.8,41.1,25.6,41.6,23.4,41.6z M14,8c-0.3,0-0.6,0.1-0.8,0.2c-0.5,0.3-0.8,0.7-1,1.4c0,0.2-3.5,17.8-0.2,24.1
			c1.6,3,4.3,5.3,7.5,6.3c3.3,1,6.7,0.7,9.8-0.9c3-1.6,5.3-4.3,6.3-7.5c1-3.3,0.7-6.7-0.9-9.8l0,0C31.5,15.6,15,8.3,14.9,8.2
			C14.6,8.1,14.3,8,14,8z"/>
	</g>
	<g>
		<path class="st1" d="M27.5,35.4c0,0-0.1-0.4-0.2-1c-0.1-0.3-0.1-0.7-0.2-1.2c-0.1-0.5-0.2-0.9-0.3-1.5c-0.1-0.3-0.1-0.5-0.2-0.8
			c-0.1-0.3-0.2-0.6-0.3-0.9c-0.2-0.6-0.4-1.2-0.6-1.8c-0.2-0.6-0.5-1.3-0.8-1.9c-0.1-0.3-0.3-0.6-0.4-1L24,24.4
			c-0.3-0.6-0.7-1.3-1-1.9c-0.4-0.6-0.7-1.2-1.1-1.8c-0.4-0.5-0.7-1.1-1.1-1.6c-0.4-0.5-0.7-1-1.1-1.4c-0.7-0.9-1.3-1.6-1.7-2.1
			c-0.4-0.5-0.7-0.8-0.7-0.8s1.4,0.6,3.2,2.1c0.4,0.4,0.9,0.8,1.4,1.2c0.5,0.4,0.9,1,1.4,1.5c0.4,0.6,0.9,1.1,1.3,1.8
			c0.4,0.6,0.8,1.3,1.2,2l0.5,1c0.1,0.4,0.3,0.7,0.4,1.1c0.3,0.7,0.5,1.4,0.7,2.1c0.2,0.7,0.3,1.4,0.4,2.1c0,0.3,0.1,0.6,0.1,1
			c0,0.3,0,0.6,0,0.9c0,0.6,0,1.1,0,1.6c-0.1,0.5-0.1,0.9-0.2,1.2C27.6,35,27.5,35.4,27.5,35.4z"/>
	</g>
</g>
</svg>
