<?xml version="1.0" encoding="utf-8"?>
<!-- Generator: Adobe Illustrator 19.1.0, SVG Export Plug-In . SVG Version: 6.00 Build 0)  -->
<svg version="1.1" id="Layer_1" xmlns="http://www.w3.org/2000/svg" xmlns:xlink="http://www.w3.org/1999/xlink" x="0px" y="0px"
	 viewBox="0 0 72.2 43.5" style="enable-background:new 0 0 72.2 43.5;" xml:space="preserve">
<style type="text/css">
	.st0{fill:#D2E6DB;}
	.st1{fill:#B6CCBF;}
	.st2{fill:#1B331B;}
	.st3{fill:#E7F4F5;}
	.st4{opacity:0.33;}
	.st5{fill:#2BA9E0;}
	.st6{opacity:0.3;}
	.st7{opacity:0.2;}
	.st8{fill:#0A2B3C;}
	.st9{opacity:5.000000e-02;}
	.st10{opacity:0.68;}
	.st11{fill:#FFFFFF;}
	.st12{fill:#C6462B;}
	.st13{fill:#F9EDA8;}
	.st14{opacity:0.25;}
	.st15{fill:#503412;}
	.st16{opacity:0.1;}
	.st17{fill:#E0D4CE;}
	.st18{fill:#E7E7E8;}
</style>
<g>
	<g>
		<path class="st11" d="M52.1,43H3.5c-1.6,0-3-1.3-3-3V8.3c0-1.7,1.3-3,3-3h48.6c1.7,0,3,1.3,3,3V40C55.1,41.6,53.7,43,52.1,43z"/>
		<path class="st2" d="M52.1,43.5H3.5C1.6,43.5,0,41.9,0,40V8.3c0-1.9,1.6-3.5,3.5-3.5h48.6c1.9,0,3.5,1.6,3.5,3.5V40
			C55.6,41.9,54,43.5,52.1,43.5z M3.5,5.8C2.1,5.8,1,6.9,1,8.3V40c0,1.4,1.1,2.5,2.5,2.5h48.6c1.4,0,2.5-1.1,2.5-2.5V8.3
			c0-1.4-1.1-2.5-2.5-2.5H3.5z"/>
	</g>
	<g>
		<circle class="st11" cx="10.5" cy="24.1" r="2.7"/>
		<path class="st2" d="M10.5,27.3c-1.8,0-3.2-1.4-3.2-3.2s1.4-3.2,3.2-3.2s3.2,1.4,3.2,3.2S12.2,27.3,10.5,27.3z M10.5,21.9
			c-1.2,0-2.2,1-2.2,2.2s1,2.2,2.2,2.2s2.2-1,2.2-2.2S11.7,21.9,10.5,21.9z"/>
	</g>
	<g class="st16">
		<path class="st2" d="M55.1,25.6l-6.2-1.8l0,0.1l-32.8-9c7.3,17.2,35.3,22.9,35.3,22.9l2.3-7.6l1.4,0.4V25.6z"/>
	</g>
	<g>
		<g>
			<path class="st17" d="M46,22.8c0.4-1.3,2-1.9,3.6-1.5l20,5.8c1.6,0.5,2.5,2.1,2,3.7l-1,3.5c-0.5,1.6-1.8,1.9-2.9,0.7l-2.7-2.7
				c-1.2-1.2-3.4-2.5-5-3L48.2,26C46.6,25.5,45.6,24.1,46,22.8z"/>
		</g>
		<g>
			<path class="st2" d="M69,36.3c-0.6,0-1.2-0.3-1.8-0.9l-2.7-2.7c-1.1-1.1-3.3-2.4-4.8-2.9l-11.7-3.4c-1.9-0.5-3-2.2-2.5-3.8v0
				c0.2-0.8,0.8-1.4,1.6-1.7c0.8-0.3,1.7-0.4,2.6-0.1l20,5.8c1.9,0.5,2.9,2.5,2.4,4.3l-1,3.5c-0.3,0.9-0.8,1.6-1.6,1.8
				C69.3,36.3,69.2,36.3,69,36.3z M46.5,23c-0.3,1,0.6,2.1,1.9,2.5l11.7,3.4c1.7,0.5,4,1.9,5.2,3.1l2.7,2.7c0.4,0.4,0.9,0.6,1.3,0.5
				c0.4-0.1,0.7-0.5,0.9-1.1l1-3.5c0.4-1.3-0.4-2.7-1.7-3.1l-20-5.8c-0.7-0.2-1.3-0.2-1.9,0.1C47,22.1,46.6,22.5,46.5,23L46.5,23z"
				/>
		</g>
	</g>
	<g>
		<path class="st18" d="M13.9,11.6l39,10.7l-3.7,12.1C49.2,34.5,21.2,28.9,13.9,11.6z"/>
		<path class="st2" d="M49.5,35.1L49.1,35c-1.2-0.2-28.3-5.9-35.7-23.2l-0.4-1L53.5,22L49.5,35.1z M14.8,12.4
			c7.2,14.9,30.5,20.7,34.1,21.5l3.4-11.2L14.8,12.4z"/>
	</g>
	<g>
		<circle class="st2" cx="67.7" cy="30.3" r="1.1"/>
	</g>
	<g class="st10">
		<circle class="st11" cx="50.6" cy="9.3" r="8.3"/>
	</g>
	<g>
		<path class="st12" d="M50.6,18.6c-2.4,0-4.8-0.9-6.6-2.7c-3.6-3.6-3.6-9.5,0-13.2c3.6-3.6,9.5-3.6,13.2,0c3.6,3.6,3.6,9.5,0,13.2
			C55.4,17.7,53,18.6,50.6,18.6z M50.6,2c-1.9,0-3.7,0.7-5.2,2.1c-2.9,2.9-2.9,7.5,0,10.3c2.9,2.9,7.5,2.9,10.3,0
			c2.9-2.9,2.9-7.5,0-10.3C54.3,2.7,52.5,2,50.6,2z"/>
	</g>
	<g>
		<rect x="49.6" y="1" transform="matrix(0.7071 0.7071 -0.7071 0.7071 21.383 -33.0976)" class="st12" width="2" height="16.5"/>
	</g>
</g>
</svg>
