<?xml version="1.0" encoding="utf-8"?>
<!-- Generator: Adobe Illustrator 19.1.0, SVG Export Plug-In . SVG Version: 6.00 Build 0)  -->
<svg version="1.1" id="Layer_1" xmlns="http://www.w3.org/2000/svg" xmlns:xlink="http://www.w3.org/1999/xlink" x="0px" y="0px"
	 viewBox="-1244 779 69.5 43" style="enable-background:new -1244 779 69.5 43;" xml:space="preserve">
<style type="text/css">
	.st0{fill:#C7B89C;}
	.st1{fill:#1B331B;}
	.st2{fill:#E4A391;}
	.st3{fill:#8B5D39;}
	.st4{opacity:0.3;}
	.st5{fill:#BB1E25;}
	.st6{fill:#D2E6DB;}
	.st7{fill:#B6CCBF;}
	.st8{fill:#4F7F4F;}
	.st9{fill:#DED3BB;}
	.st10{opacity:0.18;}
	.st11{fill:#3F291B;}
	.st12{fill:#E7E7E8;}
	.st13{opacity:0.1;}
</style>
<g>
	<g>
		<path class="st0" d="M-1200.4,801.7c0-0.1-0.4-0.9-0.4-0.9c-0.9-2.1-3.5-3.1-5.6-2.1c-2.1,0.9-3.1,3.5-2.1,5.6
			c0,0,0.4,0.8,0.4,0.9c0.4,0.9,2.4,0.8,4.6-0.1C-1201.3,804.2-1200,802.6-1200.4,801.7z"/>
	</g>
	<g>
		<path class="st1" d="M-1206.7,806.3c-1,0-1.7-0.3-2-0.9l-0.4-0.9c-1.1-2.4,0-5.2,2.4-6.3c2.4-1.1,5.2,0,6.3,2.4l0.4,0.9
			c0.3,0.6,0,1.4-0.7,2.2c-0.6,0.7-1.6,1.3-2.7,1.8s-2.2,0.8-3.1,0.8C-1206.6,806.3-1206.6,806.3-1206.7,806.3z M-1204.7,798.7
			c-0.5,0-1,0.1-1.5,0.3c-1.9,0.8-2.7,3.1-1.9,4.9l0.4,0.9c0.1,0.2,0.4,0.4,1.2,0.3c0.8,0,1.8-0.3,2.8-0.7c1-0.4,1.8-1,2.4-1.6
			c0.5-0.5,0.6-0.9,0.5-1.1l-0.5-0.7C-1201.9,799.6-1203.3,798.7-1204.7,798.7z"/>
	</g>
</g>
<g>
	<g>
		
			<ellipse transform="matrix(-0.4067 -0.9136 0.9136 -0.4067 -2428.0801 29.9575)" class="st0" cx="-1204.3" cy="803.4" rx="1.8" ry="4.2"/>
	</g>
	<g>
		<path class="st1" d="M-1206.7,806.3c-1,0-1.7-0.3-2-0.9c-0.3-0.6,0-1.4,0.7-2.2c0.6-0.7,1.6-1.3,2.7-1.8c1.1-0.5,2.2-0.8,3.1-0.8
			c1.1,0,1.8,0.3,2.1,0.9l0,0c0.3,0.6,0,1.4-0.7,2.2c-0.6,0.7-1.6,1.3-2.7,1.8S-1205.7,806.3-1206.7,806.3
			C-1206.6,806.3-1206.6,806.3-1206.7,806.3z M-1202,801.6L-1202,801.6c-0.9,0-1.9,0.3-2.9,0.7c-1,0.4-1.8,1-2.4,1.6
			c-0.5,0.5-0.6,0.9-0.5,1.1c0.1,0.2,0.4,0.4,1.2,0.3c0.8,0,1.8-0.3,2.8-0.7c1-0.4,1.8-1,2.4-1.6c0.5-0.5,0.6-0.9,0.5-1.1l0,0
			C-1201,801.7-1201.3,801.6-1202,801.6z"/>
	</g>
</g>
<g>
	<g>
		<g>
			<path class="st2" d="M-1188,787c0,0.1-0.1,0.2-0.2,0.2h-4.5c-0.1,0-0.2-0.1-0.2-0.2v-7.3c0-0.1,0.1-0.2,0.2-0.2h4.5
				c0.1,0,0.2,0.1,0.2,0.2V787z"/>
		</g>
		<g>
			<path class="st3" d="M-1188.2,787.7h-4.5c-0.4,0-0.7-0.3-0.7-0.7v-7.3c0-0.4,0.3-0.7,0.7-0.7h4.5c0.4,0,0.7,0.3,0.7,0.7v7.3
				C-1187.5,787.4-1187.8,787.7-1188.2,787.7z M-1192.4,786.7h3.9V780h-3.9V786.7z"/>
		</g>
	</g>
	<g class="st4">
		<rect x="-1191.5" y="780.8" class="st5" width="2.2" height="5.1"/>
	</g>
</g>
<g>
	<path class="st2" d="M-1183.8,803.9c-0.1,0-0.2,0-0.1-0.1l0.5-1.6c0-0.1,0.1-0.2,0.2-0.3l5.2-3.8c0-0.1,0.2-0.1,0.3-0.1l1.2,0.3
		c0.1,0,0.1,0.1,0.1,0.2l-2,2.9c-0.1,0.1-0.2,0.2-0.3,0.2L-1183.8,803.9z"/>
</g>
<g>
	<path class="st3" d="M-1174.6,800c-2.2,2.7-5.1,4.8-8.3,6.1c-0.1,0-0.2,0-0.3-0.1c-0.3-0.7-0.5-1.4-0.8-2.1c0-0.1,0-0.2,0.1-0.3
		c2.8-1.1,5.3-3,7.3-5.3c0.1-0.1,0.2-0.1,0.3,0c0.6,0.5,1.1,0.9,1.7,1.4C-1174.5,799.8-1174.5,799.9-1174.6,800z"/>
</g>
<g class="st4">
	<path class="st5" d="M-1177.9,799.2c-1.4,1.4-3,2.6-4.8,3.5c-0.1,0-0.1,0-0.1,0c-0.1-0.3-0.1-0.5-0.2-0.8l0.1-0.1l4.2-3.1
		c0,0,0.1-0.1,0.1,0c0.2,0.1,0.5,0.3,0.7,0.4C-1177.8,799.1-1177.8,799.2-1177.9,799.2z"/>
</g>
<g>
	<path class="st2" d="M-1199.1,799.1c-0.1,0-0.1-0.1,0-0.2l1.3-1c0.1-0.1,0.2-0.1,0.4-0.1h6.4c0.1,0,0.3,0.1,0.3,0.2l0.8,1
		c0.1,0.1,0,0.2-0.1,0.2l-3.3,1.1c-0.1,0-0.3,0-0.4,0L-1199.1,799.1z"/>
</g>
<g>
	<path class="st6" d="M-1188.7,787c0.8,1.5,0.2,3.4-1.3,4.2s-3.4,0.2-4.2-1.3c-0.8-1.5,0-5.7,0-5.7c0.1-0.4,0.4-0.6,0.8-0.4
		C-1193.4,783.8-1189.5,785.5-1188.7,787z"/>
</g>
<g>
	<path class="st1" d="M-1191.5,792.1c-0.4,0-0.7-0.1-1.1-0.2c-0.9-0.3-1.7-0.9-2.1-1.8c-0.9-1.6-0.1-5.6,0-6
		c0.1-0.3,0.3-0.6,0.5-0.7c0.3-0.1,0.6-0.2,0.9,0c0.4,0.2,4.1,1.8,5,3.5c0.9,1.8,0.2,4-1.5,4.9
		C-1190.3,791.9-1190.9,792.1-1191.5,792.1z M-1193.6,784.2c-0.3,1.2-0.8,4.3-0.2,5.4c0.3,0.6,0.9,1.1,1.5,1.3
		c0.7,0.2,1.4,0.1,2-0.2c1.3-0.7,1.8-2.3,1.1-3.5C-1189.8,786.1-1192.6,784.7-1193.6,784.2z"/>
</g>
<g>
	<path class="st7" d="M-1190.5,790.2c0,0,0-0.1,0-0.2s0-0.2,0-0.3c0-0.1-0.1-0.2-0.1-0.3c0-0.1,0-0.1,0-0.2c0-0.1,0-0.1-0.1-0.2
		c0-0.1-0.1-0.3-0.1-0.4c-0.1-0.1-0.1-0.3-0.2-0.4c0-0.1-0.1-0.2-0.1-0.2l-0.1-0.2c-0.1-0.2-0.2-0.3-0.2-0.4
		c-0.1-0.1-0.2-0.3-0.3-0.4c-0.3-0.3-0.3-0.5-0.4-0.6c-0.1-0.1-0.2-0.2-0.3-0.3c-0.2-0.2-0.3-0.4-0.4-0.5c-0.1-0.1-0.2-0.2-0.2-0.2
		s0.3,0.1,0.7,0.5c0.2,0.1,0.3,0.2,0.4,0.3c0.1,0.1,0.2,0.2,0.3,0.4c0.1,0.1,0.2,0.3,0.3,0.4c0.1,0.1,0.2,0.3,0.3,0.5l0.1,0.2
		c0,0.1,0.1,0.2,0.1,0.3c0.1,0.2,0.1,0.3,0.2,0.5s0.1,0.3,0.1,0.5c0,0.1,0,0.2,0,0.2c0,0.1,0,0.1,0,0.2c0,0.1,0,0.3,0,0.4
		c0,0.1,0,0.2,0,0.3C-1190.5,790.1-1190.5,790.2-1190.5,790.2z"/>
</g>
<g>
	<path class="st6" d="M-1187.8,810.2c-1.3,1.1-3.3,0.9-4.4-0.5c-1.1-1.3-0.9-3.3,0.5-4.4c1.3-1.1,5.6-1.1,5.6-1.1
		c0.4,0,0.6,0.3,0.5,0.7C-1185.5,805-1186.4,809.1-1187.8,810.2z"/>
</g>
<g>
	<path class="st1" d="M-1189.7,811.4c-0.1,0-0.3,0-0.4,0c-1-0.1-1.8-0.6-2.4-1.3c-0.6-0.8-0.9-1.7-0.8-2.7c0.1-1,0.6-1.8,1.3-2.4
		c1.4-1.2,5.5-1.2,5.9-1.2c0.3,0,0.6,0.1,0.8,0.4c0.2,0.2,0.3,0.6,0.2,0.9c-0.1,0.4-1,4.4-2.5,5.5
		C-1188.1,811.1-1188.9,811.4-1189.7,811.4z M-1186.6,804.8c-1.4,0-3.9,0.2-4.7,0.9c-0.5,0.4-0.9,1.1-1,1.8
		c-0.1,0.7,0.1,1.4,0.6,1.9c0.4,0.5,1.1,0.9,1.8,1c0.7,0.1,1.4-0.1,1.9-0.6l0,0c1-0.8,1.9-3.9,2.1-5
		C-1186.2,804.9-1186.4,804.8-1186.6,804.8z"/>
</g>
<g>
	<path class="st7" d="M-1191.3,809.1c0,0,0.1,0,0.2-0.1c0.1,0,0.2-0.1,0.3-0.1c0.1,0,0.2-0.1,0.3-0.1s0.1-0.1,0.2-0.1
		c0.1,0,0.1-0.1,0.2-0.1c0.1-0.1,0.3-0.1,0.4-0.2c0.1-0.1,0.3-0.2,0.4-0.3c0.1,0,0.1-0.1,0.2-0.1l0.2-0.2c0.1-0.1,0.3-0.2,0.4-0.3
		s0.2-0.2,0.4-0.3c0.1-0.1,0.2-0.2,0.3-0.3c0.1-0.1,0.2-0.2,0.3-0.3c0.2-0.2,0.3-0.4,0.4-0.5c0.1-0.1,0.1-0.2,0.1-0.2
		s-0.1,0.4-0.3,0.8c-0.1,0.1-0.1,0.2-0.2,0.4c-0.1,0.1-0.2,0.3-0.3,0.4c-0.1,0.1-0.2,0.3-0.3,0.4c-0.1,0.1-0.3,0.2-0.4,0.4l-0.2,0.2
		c-0.1,0-0.2,0.1-0.2,0.1c-0.1,0.1-0.3,0.2-0.5,0.2c-0.1,0.1-0.3,0.1-0.5,0.2c-0.1,0-0.1,0.1-0.2,0.1s-0.1,0-0.2,0
		c-0.1,0-0.3,0.1-0.4,0.1c-0.1,0-0.2,0-0.3,0C-1191.2,809.1-1191.3,809.1-1191.3,809.1z"/>
</g>
<g>
	
		<rect x="-1194.8" y="792.4" transform="matrix(-0.3865 -0.9223 0.9223 -0.3865 -2387.4583 -1.6139)" class="st8" width="1" height="1.8"/>
</g>
<g>
	
		<rect x="-1186.1" y="801" transform="matrix(-0.9025 -0.4307 0.4307 -0.9025 -2600.968 1014.9614)" class="st8" width="1" height="1.8"/>
</g>
<g>
	
		<rect x="-1199.5" y="792.1" transform="matrix(-0.5139 -0.8578 0.8578 -0.5139 -2495.4258 172.0076)" class="st8" width="1" height="1.8"/>
</g>
<g>
	
		<rect x="-1202" y="792.5" transform="matrix(-0.9549 -0.2968 0.2968 -0.9549 -2584.3381 1194.4006)" class="st8" width="1" height="1.8"/>
</g>
<g>
	
		<rect x="-1184.7" y="791.7" transform="matrix(-0.9549 -0.2968 0.2968 -0.9549 -2550.7571 1197.9065)" class="st8" width="0.5" height="1.8"/>
</g>
<g>
	
		<rect x="-1183.1" y="806" transform="matrix(-0.6716 -0.7409 0.7409 -0.6716 -2574.7036 472.6251)" class="st8" width="1" height="1.8"/>
</g>
<g>
	
		<rect x="-1183.6" y="786.8" transform="matrix(-0.2227 -0.9749 0.9749 -0.2227 -2214.4397 -190.2811)" class="st8" width="1" height="1.8"/>
</g>
<g>
	
		<rect x="-1180.6" y="783.1" transform="matrix(-0.8161 -0.5779 0.5779 -0.8161 -2596.3145 741.8643)" class="st8" width="1" height="1.8"/>
</g>
<g>
	
		<rect x="-1177.1" y="788" transform="matrix(-0.8161 -0.5779 0.5779 -0.8161 -2592.7009 752.8068)" class="st8" width="1" height="1.8"/>
</g>
<g>
	
		<rect x="-1182.1" y="779.4" transform="matrix(-0.4085 -0.9128 0.9128 -0.4085 -2376.8381 20.3422)" class="st8" width="0.5" height="1.8"/>
</g>
<g>
	
		<rect x="-1197.1" y="796.1" transform="matrix(-0.4146 -0.91 0.91 -0.4146 -2417.1167 38.38)" class="st8" width="1.8" height="1"/>
</g>
<g>
	<g>
		<g>
			<path class="st9" d="M-1186.3,790.2C-1186.4,790.2-1186.4,790.2-1186.3,790.2l-0.7-0.2c-2.3-0.5-4.6,0.9-5.1,3.1
				c-0.5,2.3,0.9,4.6,3.1,5.1l0.6,0.1h0.1L-1186.3,790.2z"/>
		</g>
		<g>
			<path class="st1" d="M-1187.9,799l-1.2-0.3c-1.2-0.3-2.3-1-2.9-2.1c-0.6-1.1-0.9-2.4-0.6-3.6c0.3-1.2,1-2.3,2.1-2.9
				c1.1-0.7,2.3-0.9,3.6-0.6l1.2,0.3l-0.1,0.5L-1187.9,799z M-1188,790.4c-0.7,0-1.4,0.2-2,0.6c-0.9,0.5-1.5,1.3-1.7,2.3
				c-0.2,1-0.1,2,0.5,2.8c0.5,0.9,1.3,1.5,2.3,1.7l0.2,0.1l1.7-7.3l-0.2-0.1C-1187.4,790.4-1187.7,790.4-1188,790.4z"/>
		</g>
	</g>
	<g>
		<g>
			
				<ellipse transform="matrix(-0.9727 -0.232 0.232 -0.9727 -2525.9019 1291.6448)" class="st0" cx="-1187" cy="794.4" rx="1.8" ry="4.2"/>
		</g>
		<g>
			<path class="st1" d="M-1187.8,799c-0.1,0-0.2,0-0.3,0c-1.4-0.3-1.6-2.8-1.1-5.1c0.5-2.3,2.1-4.4,3.5-4.1c0.9,0.3,0.9,0.8,1.1,1.9
				c0.1,0.9,0.1,2.1-0.2,3.2C-1185.3,797-1186.5,799-1187.8,799z M-1186.2,790.7c-0.5,0-1.5,1.3-2,3.4c-0.5,2.2-0.1,3.8,0.4,3.9
				s1.6-1.2,2.1-3.3c0.2-1,0.3-2,0.2-2.8C-1185.7,791.1-1186,790.8-1186.2,790.7L-1186.2,790.7z"/>
		</g>
	</g>
	<g>
		<g>
			<path class="st0" d="M-1187,793.1c3.8,1.8,4.2,0.2,5.7,0.6c1.1,0.3,1.7,1.3,1.5,2.4c-0.3,1.1-1.3,1.7-2.4,1.5
				c-2.1-0.5-3-2.5-5.3-2"/>
		</g>
		<g>
			<path class="st1" d="M-1181.8,798.1c-0.2,0-0.4,0-0.6-0.1c-0.9-0.2-1.7-0.7-2.3-1.1c-0.9-0.6-1.7-1.1-2.8-0.9
				c-0.3,0.1-0.5-0.1-0.6-0.4c-0.1-0.3,0.1-0.5,0.4-0.6c1.6-0.3,2.6,0.4,3.6,1c0.6,0.4,1.2,0.8,2,1c0.4,0.1,0.8,0,1.1-0.2
				s0.6-0.5,0.7-0.9c0.1-0.4,0-0.8-0.2-1.1s-0.5-0.6-0.9-0.7c-0.4-0.1-0.7,0-1.1,0.1c-0.9,0.2-2,0.5-4.7-0.7
				c-0.2-0.1-0.4-0.4-0.2-0.7c0.1-0.2,0.4-0.4,0.7-0.2c2.3,1.1,3.2,0.9,4,0.7c0.5-0.1,0.9-0.2,1.6-0.1c0.6,0.2,1.2,0.5,1.5,1.1
				c0.3,0.6,0.5,1.2,0.3,1.9c-0.2,0.6-0.5,1.2-1.1,1.5C-1180.9,798-1181.3,798.1-1181.8,798.1z"/>
		</g>
	</g>
</g>
<g>
	<path class="st0" d="M-1203.3,802.7c0.9,4.1,2.3,3.5,3,4.9c0.4,1,0,2.2-1,2.6c-1,0.4-2.2,0-2.6-1c-0.9-2,0.1-3.9-1.6-5.5"/>
	<path class="st1" d="M-1202.1,810.8c-0.9,0-1.9-0.5-2.3-1.5c-0.4-0.9-0.4-1.7-0.5-2.5c-0.1-1.1-0.1-2-1-2.8c-0.2-0.2-0.2-0.5,0-0.7
		c0.2-0.2,0.5-0.2,0.7,0c1.2,1.1,1.3,2.3,1.4,3.5c0,0.7,0.1,1.5,0.4,2.2c0.3,0.7,1.2,1.1,1.9,0.7c0.4-0.2,0.6-0.4,0.8-0.8
		c0.1-0.4,0.1-0.8,0-1.1c-0.2-0.4-0.4-0.6-0.7-0.8c-0.7-0.6-1.6-1.3-2.3-4.1c-0.1-0.3,0.1-0.5,0.4-0.6c0.3-0.1,0.5,0.1,0.6,0.4
		c0.6,2.5,1.3,3.1,1.9,3.6c0.4,0.3,0.8,0.6,1,1.2c0.3,0.6,0.3,1.3,0,1.9c-0.2,0.6-0.7,1.1-1.3,1.4
		C-1201.4,810.8-1201.8,810.8-1202.1,810.8z"/>
</g>
<g>
	
		<rect x="-1230.8" y="801.2" transform="matrix(-0.9489 -0.3157 0.3157 -0.9489 -2640.4314 1176.6509)" class="st1" width="11.8" height="2"/>
</g>
<g>
	<path class="st0" d="M-1227.8,803.2c-0.2,0-0.4,0-0.6-0.1l-14.2-4.7c-1-0.3-1.6-1.5-1.3-2.5c0.3-1,1.5-1.6,2.5-1.3l14.2,4.7
		c1,0.3,1.6,1.5,1.3,2.5C-1226.2,802.7-1227,803.2-1227.8,803.2z"/>
</g>
<g class="st10">
	<path class="st11" d="M-1227.8,801.2l-14.2-4.7c-0.7-0.2-1.2-0.8-1.3-1.5c-0.3,0.2-0.5,0.5-0.6,0.9c-0.3,1,0.2,2.2,1.3,2.5
		l14.2,4.7c1,0.3,2.2-0.2,2.5-1.3c0.1-0.3,0.1-0.7,0.1-1C-1226.4,801.3-1227.1,801.4-1227.8,801.2z"/>
</g>
<g>
	<path class="st12" d="M-1183.1,813.5l-36.4-12.1c-0.5-0.2-1.1,0.1-1.3,0.6l-1.6,4.7c-0.5,1.6,0.3,3.3,1.9,3.8l32.7,10.9
		c1.6,0.5,3.3-0.3,3.8-1.9l1.6-4.7C-1182.3,814.3-1182.5,813.7-1183.1,813.5z"/>
	<path class="st1" d="M-1186.8,822c-0.4,0-0.7-0.1-1.1-0.2l-32.7-10.8c-0.9-0.3-1.6-0.9-2-1.7s-0.5-1.8-0.2-2.7l1.6-4.7
		c0.1-0.4,0.4-0.7,0.8-0.9s0.8-0.2,1.1-0.1l36.4,12.1c0.4,0.1,0.7,0.4,0.9,0.8c0.2,0.4,0.2,0.8,0.1,1.1l-1.6,4.7
		C-1184,821.1-1185.4,822-1186.8,822z M-1219.8,801.8c-0.1,0-0.2,0-0.2,0.1c-0.1,0.1-0.2,0.2-0.2,0.3l-1.6,4.7
		c-0.2,0.6-0.2,1.3,0.1,1.9c0.3,0.6,0.8,1,1.4,1.2l32.7,10.9c1.3,0.4,2.7-0.3,3.1-1.6l1.6-4.7c0-0.1,0-0.3,0-0.4
		c-0.1-0.1-0.2-0.2-0.3-0.2l-36.5-12.1C-1219.7,801.8-1219.8,801.8-1219.8,801.8z"/>
</g>
<g class="st13">
	<path class="st1" d="M-1183.1,813.5l-1.9-0.6l-0.9,2.8c-0.5,1.6-2.2,2.4-3.8,1.9l-32.6-10.9l0,0c-0.5,1.6,0.3,3.3,1.9,3.8
		l32.7,10.9c1.6,0.5,3.3-0.3,3.8-1.9l1.6-4.7C-1182.3,814.3-1182.5,813.7-1183.1,813.5z"/>
</g>
<g>
	<path class="st3" d="M-1189.4,801.4c-3.4,0.9-6.9,0.9-10.3,0c-0.1,0-0.2-0.1-0.2-0.3c0.2-0.7,0.4-1.4,0.6-2.1
		c0-0.1,0.1-0.2,0.2-0.1c3,0.8,6.1,0.8,9,0c0.1,0,0.2,0,0.2,0.1c0.2,0.7,0.4,1.4,0.6,2.1C-1189.2,801.3-1189.3,801.4-1189.4,801.4z"
		/>
</g>
<g class="st4">
	<path class="st5" d="M-1191.6,798.8c-1.9,0.3-4,0.3-5.9,0c-0.1,0-0.1-0.1-0.1-0.1c0.1-0.2,0.2-0.5,0.3-0.7h0.1h5.2h0.1
		C-1191.7,798.2-1191.6,798.5-1191.6,798.8C-1191.4,798.8-1191.5,798.8-1191.6,798.8z"/>
</g>
</svg>
