<svg xmlns="http://www.w3.org/2000/svg" version="1.1" x="0" y="0" viewBox="0 0 27.3 26.3" xml:space="preserve"><style type="text/css">
	.st0{fill:#CBE5DB;}
	.st1{fill:#AFCDC0;}
	.st2{fill:none;stroke:#0A2F1A;stroke-miterlimit:10;}
	.st3{fill:#E3F2F4;}
	.st4{opacity:0.33;}
	.st5{fill:#00A8E0;stroke:#00A8E0;stroke-width:0.5;stroke-miterlimit:10;}
	.st6{opacity:0.3;}
	.st7{fill:none;stroke:#00A8E0;stroke-width:0.5;stroke-miterlimit:10;}
	.st8{opacity:0.2;}
	.st9{fill:#0D2838;}
	.st10{opacity:5.000000e-02;fill:#0D2838;}
	.st11{opacity:0.68;fill:#FFFFFF;}
	.st12{fill:none;stroke:#E54526;stroke-width:2;stroke-miterlimit:10;}
	.st13{fill:#FEEEA6;stroke:#0A2F1A;stroke-miterlimit:10;}
	.st14{opacity:0.25;fill:#583112;}
	.st15{fill:#F5D000;}
	.st16{fill:#FFFFFF;}
	.st17{opacity:0.4;fill:none;stroke:#FFFFFF;stroke-width:2;stroke-miterlimit:10;}
	.st18{fill:#FFFFFF;stroke:#0A2F1A;stroke-miterlimit:10;}
	.st19{opacity:0.1;fill:#0A2F1A;}
	.st20{fill:#E5D5CF;}
	.st21{fill:#E7E8E9;stroke:#0A2F1A;stroke-miterlimit:10;}
	.st22{fill:#0A2F1A;}
	.st23{fill:#E7E8E9;}
	.st24{fill:#FAC7BB;}
	.st25{opacity:0.1;}
	.st26{fill:#BCBFC1;}
	.st27{fill:#F1F2F3;}
	.st28{fill:#F9F9FA;}
</style><rect x="0.5" y="5.8" class="st23" width="26.3" height="20"/><path class="st2" d="M25.6 2.4c-0.4-1-1.6-1.9-2.7-1.9H4.3C3.2 0.5 2 1.3 1.7 2.4L1.2 3.9c-0.4 1-0.7 2.8-0.7 3.9v16c0 1.1 0.9 2 2 2h22.3c1.1 0 2-0.9 2-2v-16c0-1.1-0.3-2.8-0.7-3.9L25.6 2.4z"/><line class="st2" x1="0.5" y1="5.9" x2="26.5" y2="5.9"/><line class="st2" x1="13.5" y1="0.5" x2="13.5" y2="5.9"/><line class="st2" x1="4.3" y1="11.2" x2="10.5" y2="11.2"/><line class="st2" x1="4.3" y1="14" x2="9.5" y2="14"/></svg>