<?xml version="1.0" encoding="utf-8"?>
<!-- Generator: Adobe Illustrator 19.1.0, SVG Export Plug-In . SVG Version: 6.00 Build 0)  -->
<svg version="1.1" id="Layer_1" xmlns="http://www.w3.org/2000/svg" xmlns:xlink="http://www.w3.org/1999/xlink" x="0px" y="0px"
	 viewBox="0 0 14.6 10.8" style="enable-background:new 0 0 14.6 10.8;" xml:space="preserve">
<style type="text/css">
	.st0{fill:#F4E6D0;}
	.st1{opacity:0.88;}
	.st2{fill:#8B9985;}
	.st3{fill:none;stroke:#1B331B;stroke-miterlimit:10;}
	.st4{opacity:0.13;}
	.st5{fill:#3F291B;}
	.st6{fill:#F4E6D0;stroke:#1B331B;stroke-miterlimit:10;}
	.st7{fill:#8B9985;stroke:#8B9985;stroke-width:0.25;stroke-miterlimit:10;}
	.st8{fill:#FDF8DE;stroke:#1F3420;stroke-miterlimit:10;}
	.st9{fill:none;stroke:#1F3420;stroke-miterlimit:10;}
	.st10{fill:#FFFFFF;stroke:#E7372A;stroke-width:2;stroke-miterlimit:10;}
	.st11{fill:#F6F6F6;stroke:#E7372A;stroke-width:2;stroke-miterlimit:10;}
	.st12{fill:#1A321C;}
	.st13{fill:#EBCF1B;}
	.st14{fill:#EAA9B1;}
	.st15{fill:#FFFFFF;stroke:#1F3420;stroke-miterlimit:10;}
	.st16{fill:#627934;}
	.st17{opacity:0.3;fill:#FFFFFF;}
	.st18{fill:none;stroke:#19321A;stroke-miterlimit:10;}
	.st19{fill:#859955;}
	.st20{fill:#F3BEC2;stroke:#1F3420;stroke-miterlimit:10;}
	.st21{opacity:7.000000e-02;fill:#19321A;}
	.st22{fill:#859955;stroke:#19321A;stroke-miterlimit:10;}
	.st23{opacity:0.22;}
	.st24{fill:none;stroke:#BB1E25;stroke-miterlimit:10;}
	.st25{opacity:0.22;fill:none;stroke:#BB1E25;stroke-miterlimit:10;}
	.st26{fill:#FFFFFF;}
	.st27{fill:#E9E9E9;}
	.st28{fill:#AABFDC;}
	.st29{fill:#E0F0F0;stroke:#1F3420;stroke-miterlimit:10;}
	.st30{fill:#1F3420;}
</style>
<g>
	<g>
		<path class="st12" d="M6,1.7C4.1,2.6,3.1,3.7,3.1,5c0.8,0.1,1.5,0.4,2,1S6,7.2,6,8c0,0.8-0.3,1.5-0.8,2s-1.2,0.8-2,0.8
			c-0.9,0-1.6-0.4-2.3-1.1S0,8.2,0,7.1c0-3,1.7-5.4,5.1-7.1L6,1.7z M14.6,1.7c-1.9,0.9-2.9,2-2.9,3.3c0.8,0.1,1.5,0.4,2,1
			s0.8,1.2,0.8,2c0,0.8-0.3,1.5-0.8,2s-1.2,0.8-1.9,0.8c-0.9,0-1.6-0.4-2.3-1.1s-1-1.6-1-2.6c0-3,1.7-5.4,5.1-7.1L14.6,1.7z"/>
	</g>
</g>
</svg>
