<?xml version="1.0" encoding="utf-8"?>
<!-- Generator: Adobe Illustrator 19.1.0, SVG Export Plug-In . SVG Version: 6.00 Build 0)  -->
<svg version="1.1" id="Layer_1" xmlns="http://www.w3.org/2000/svg" xmlns:xlink="http://www.w3.org/1999/xlink" x="0px" y="0px"
	 viewBox="0 0 45.7 43" style="enable-background:new 0 0 45.7 43;" xml:space="preserve">
<style type="text/css">
	.st0{fill:#D2E6DB;}
	.st1{fill:#B6CCBF;}
	.st2{fill:#1B331B;}
	.st3{fill:#E7F4F5;}
	.st4{opacity:0.33;}
	.st5{fill:#2BA9E0;}
	.st6{opacity:0.3;}
	.st7{opacity:0.2;}
	.st8{fill:#0A2B3C;}
	.st9{opacity:5.000000e-02;}
	.st10{opacity:0.68;}
	.st11{fill:#FFFFFF;}
	.st12{fill:#C6462B;}
	.st13{fill:#F9EDA8;}
	.st14{opacity:0.25;}
	.st15{fill:#503412;}
	.st16{opacity:0.1;}
	.st17{fill:#E0D4CE;}
	.st18{fill:#E7E7E8;}
</style>
<g>
	<g>
		<path class="st13" d="M22.1,40.3l16.9,0.1c2.4,0,4.4-1,5.4-2.8c1-1.8,0.9-4-0.3-6.1c0,0,0,0,0,0l-6.5-11.3l0.5-0.3
			c0.5-0.3,0.8-0.7,0.8-1.2c0-0.5-0.3-0.9-0.8-1.2l-6.8-3.8c-0.5-0.3-1-0.3-1.5-0.1c0,0,0,0,0,0c-0.4,0.3-0.7,0.7-0.7,1.3l0,7.7
			c0,0.6,0.2,1.1,0.7,1.3c0.4,0.3,1,0.2,1.5-0.1c0,0,0,0,0,0l0.7-0.4l4.1,7.2c1,1.7,0.2,3.1-1.8,3.1l-13.6-0.1"/>
		<path class="st2" d="M39.1,40.9C39.1,40.9,39.1,40.9,39.1,40.9l-17-0.1l0-1l16.9,0.1c0,0,0,0,0,0c2.2,0,4-0.9,5-2.5
			c0.9-1.6,0.9-3.7-0.3-5.6L37.1,20l1-0.6c0.4-0.2,0.5-0.5,0.5-0.8c0-0.3-0.2-0.6-0.6-0.8L31.2,14c-0.3-0.2-0.7-0.2-1-0.1
			c-0.3,0.2-0.4,0.5-0.4,0.9l0,7.7c0,0.4,0.2,0.7,0.4,0.9c0.3,0.2,0.6,0.1,1-0.1l1.1-0.6l4.4,7.6c0.6,1,0.6,2,0.2,2.7
			c-0.4,0.8-1.3,1.1-2.5,1.2l-13.6-0.1l0-1l13.6,0.1c0.8,0,1.3-0.2,1.6-0.7s0.2-1-0.2-1.7l-3.9-6.8l-0.2,0.1c-0.7,0.4-1.4,0.4-2,0.1
			c-0.6-0.3-0.9-1-0.9-1.7l0-7.7c0-0.8,0.3-1.4,0.9-1.7c0.6-0.3,1.3-0.3,2,0l6.8,3.8c0.7,0.4,1.1,1,1.1,1.7c0,0.7-0.4,1.3-1,1.7
			l-0.1,0.1l6.2,10.9c1.3,2.3,1.4,4.7,0.3,6.6C43.8,39.8,41.7,40.9,39.1,40.9z"/>
	</g>
	<g class="st14">
		<path class="st15" d="M29.8,36L27,34.4H16.5l0,6.1h12.3l1.1-0.7c0.7-0.4,1.2-1.1,1.2-1.9c0,0,0,0,0,0C31,37.1,30.6,36.4,29.8,36z"
			/>
	</g>
	<g>
		<path class="st13" d="M28.5,35.7l-6.7-3.9c-0.5-0.3-1-0.3-1.5-0.1c-0.4,0.2-0.7,0.7-0.7,1.3c0,0,0,0,0,0l0,0.8l-8.3,0
			c-2,0-2.8-1.4-1.8-3.1l11.3-19.6c0.6-1,1.4-1.4,2.2-1.3V0.5c-0.1,0-0.4,0-0.4,0c-2.1,0-3.9,1.2-5.1,3.3l-16,27.7
			c-1.2,2.1-1.3,4.3-0.3,6.1c1,1.8,3,2.8,5.4,2.8c0,0,0,0,0,0l13,0l0,0.6c0,0.6,0.2,1.1,0.7,1.3c0.4,0.2,1,0.2,1.5-0.1l6.7-4
			c0.5-0.3,0.8-0.7,0.8-1.2c0,0,0,0,0,0C29.3,36.4,29,36,28.5,35.7z"/>
		<path class="st2" d="M21,43c-0.3,0-0.6-0.1-0.9-0.2c-0.6-0.3-0.9-1-0.9-1.7v-0.1l-12.5,0c-2.6,0-4.7-1.1-5.8-3.1
			c-1.1-1.9-1-4.3,0.3-6.6L17,3.5C18.3,1.3,20.3,0,22.6,0c0,0,0.3,0,0.5,0l0.5,0v10.4l-0.6-0.1c-0.6-0.1-1.2,0.2-1.6,1L10,31
			c-0.4,0.7-0.5,1.3-0.2,1.7s0.8,0.7,1.6,0.7c0,0,0,0,0,0l7.8,0v-0.3c0-0.8,0.3-1.4,0.9-1.7c0.6-0.3,1.3-0.3,2,0.1l6.7,3.9
			c0.7,0.4,1,1,1,1.7c0,0.7-0.4,1.3-1,1.7l-6.7,4C21.7,42.9,21.3,43,21,43z M20.2,39.9l0,1.1c0,0.4,0.2,0.7,0.4,0.9
			c0.3,0.2,0.6,0.1,1-0.1l6.7-4c0.3-0.2,0.5-0.5,0.5-0.8c0-0.3-0.2-0.6-0.5-0.8l-6.7-3.9c-0.4-0.2-0.7-0.2-1-0.1
			c-0.3,0.2-0.4,0.5-0.4,0.9l0,1.3l-8.8,0c0,0,0,0,0,0c-1.2,0-2-0.4-2.5-1.2c-0.4-0.8-0.4-1.7,0.2-2.7l11.3-19.6
			c0.5-0.9,1.3-1.5,2.1-1.5V1c-1.8,0-3.5,1.1-4.6,3l-16,27.7c-1.1,1.9-1.2,4-0.3,5.6c0.9,1.6,2.8,2.6,5,2.6L20.2,39.9z"/>
	</g>
	<g class="st14">
		<path class="st15" d="M7.8,25.1l0-3.3l5.3-9.1l5.2,3.1l-6.2,10.6l-1.1,0.6c-0.8,0.4-1.6,0.4-2.2,0.1c0,0,0,0,0,0
			C8.2,26.7,7.8,26,7.8,25.1z"/>
	</g>
	<g>
		<path class="st13" d="M35.9,17.5l-1.7-2.8L27.5,3.7c-1.3-2.1-3.2-3.2-5.2-3.2c-2.1,0-3.9,1.3-5.1,3.4c0,0,0,0,0,0L11,15.3L10.4,15
			c-0.5-0.3-1.1-0.3-1.5,0c-0.4,0.3-0.7,0.7-0.6,1.3l0.3,7.8c0,0.6,0.3,1,0.7,1.3c0,0,0,0,0,0c0.4,0.2,1,0.2,1.5-0.1l6.6-4
			c0.5-0.3,0.8-0.8,0.8-1.3c0-0.5-0.3-0.9-0.8-1.2c0,0,0,0,0,0l-0.7-0.4l4-7.3c1-1.8,2.6-1.8,3.6-0.1l4.9,8.1"/>
		<path class="st2" d="M10,26.1c-0.3,0-0.6-0.1-0.9-0.2c-0.6-0.3-1-1-1-1.7l-0.3-7.8c0-0.8,0.3-1.4,0.9-1.8c0.6-0.4,1.3-0.4,2,0
			l0.1,0.1l6-11c1.2-2.3,3.2-3.6,5.5-3.7c2.3-0.1,4.3,1.2,5.6,3.4l8.4,13.8l-0.9,0.5L27.1,3.9c-1.2-1.9-2.9-3-4.8-2.9
			c-1.9,0-3.6,1.2-4.6,3.1L11.2,16l-1-0.5c-0.4-0.2-0.7-0.2-1,0c-0.3,0.2-0.4,0.5-0.4,0.9l0.3,7.8c0,0.4,0.2,0.7,0.5,0.9
			c0.3,0.2,0.6,0.1,1-0.1l6.6-4c0.3-0.2,0.5-0.5,0.5-0.8c0-0.3-0.2-0.5-0.5-0.7h-0.2L17,19.2l-1-0.5l4.2-7.7c0.6-1,1.3-1.6,2.2-1.6
			c0.9,0,1.7,0.5,2.3,1.5l4.9,8.1l-0.9,0.5l-4.9-8.1c-0.4-0.7-0.9-1-1.4-1c-0.5,0-1,0.4-1.4,1.1l-3.8,6.9l0.2,0.1c0,0,0,0,0,0
			l0.1,0.1c0.6,0.4,0.9,0.9,0.9,1.6c0,0.7-0.4,1.3-1,1.7l-6.6,4C10.7,26,10.4,26.1,10,26.1z"/>
	</g>
	<g class="st14">
		<path class="st15" d="M31,12.2l2.7,1.8l4.6,9.4L33,26.2l-5.4-11l0.1-1.3c0.1-0.9,0.5-1.5,1.2-1.9c0,0,0,0,0,0
			C29.5,11.7,30.3,11.8,31,12.2z"/>
	</g>
	<g>
		<path class="st13" d="M39.7,23.6l-1.9-3.3l0.5-0.3c0.5-0.3,0.8-0.7,0.8-1.2c0-0.5-0.3-0.9-0.8-1.2l-6.8-3.8
			c-0.5-0.3-1-0.3-1.5-0.1c0,0,0,0,0,0c-0.4,0.3-0.7,0.7-0.7,1.3l0,7.7c0,0.6,0.2,1.1,0.7,1.3c0.4,0.3,1,0.2,1.5-0.1c0,0,0,0,0,0
			l0.7-0.4l1.9,3.3"/>
		<path class="st2" d="M33.5,27.1l-1.7-2.9l-0.2,0.1c-0.7,0.4-1.4,0.4-2,0.1c-0.6-0.3-0.9-1-0.9-1.7l0-7.7c0-0.8,0.3-1.4,0.9-1.7
			c0.6-0.3,1.3-0.3,2,0l6.8,3.8c0.7,0.4,1.1,1,1.1,1.7c0,0.7-0.4,1.3-1,1.7l-0.1,0.1l1.7,2.9l-0.9,0.5L37.1,20l1-0.6
			c0.4-0.2,0.5-0.5,0.5-0.8c0-0.3-0.2-0.6-0.6-0.8L31.2,14c-0.3-0.2-0.7-0.2-1-0.1c-0.3,0.2-0.4,0.5-0.4,0.9l0,7.7
			c0,0.4,0.2,0.7,0.4,0.9c0.3,0.2,0.6,0.1,1-0.1l1.1-0.6l2.2,3.8L33.5,27.1z"/>
	</g>
</g>
</svg>
